# xmcd CD database file
#
# Track frame offsets:
#	150
#	19168
#	39874
#	60617
#	80439
#	115243
#	147175
#	170208
#
# Disc length: 2369 seconds
#
# Revision: 0
# Processed by: cddbd v1.5.1PL0 Copyright (c) Steve Scherf et al.
# Submitted via: CDex 1.51
#
DISCID=65093f08
DTITLE=Canela y Jesus Fuentes - Jazzeando (live)
DYEAR=1900
DGENRE=Jazz
TTITLE0=Better Time
TTITLE1=Sowetto
TTITLE2=Tune up
TTITLE3=Besame Mucho
TTITLE4=Spain
TTITLE5=Miss Colibri
TTITLE6=No woman no cry
TTITLE7=Track No08SF (master)
EXTD=
EXTT0=
EXTT1=
EXTT2=
EXTT3=
EXTT4=
EXTT5=
EXTT6=
EXTT7=
PLAYORDER=
